<?xml version="1.0" encoding="UTF-8"?>
<svg xmlns="http://www.w3.org/2000/svg" version="1.1" viewBox="0 0 327.1 304.9">
  <defs>
    <style>
      .cls-1 {
        fill: #0fc9f2;
      }
    </style>
  </defs>
  <!-- Generator: Adobe Illustrator 28.6.0, SVG Export Plug-In . SVG Version: 1.2.0 Build 709)  -->
  <g>
    <g id="Capa_1">
      <g id="SvgjsG2323">
        <path class="cls-1" d="M310.8,220.3c0,8.7-17.7,15.6-39.3,15.6s-39.3-7-39.3-15.6v8c0,8.7,17.7,15.6,39.3,15.6s39.3-7,39.3-15.6v-8Z"/>
        <path class="cls-1" d="M310.8,235.9c0,8.7-17.7,15.6-39.3,15.6s-39.3-7-39.3-15.6v8c0,8.7,17.7,15.6,39.3,15.6s39.3-7,39.3-15.6v-8Z"/>
        <path class="cls-1" d="M310.8,251.6c0,8.7-17.7,15.6-39.3,15.6s-39.3-7-39.3-15.6v8c0,8.7,17.7,15.6,39.3,15.6s39.3-7,39.3-15.6v-8Z"/>
        <path class="cls-1" d="M310.8,205.3h0c0-9-17.7-16-39.3-16s-39.3,7-39.3,15.6v8c0,8.7,17.7,15.6,39.3,15.6s39.3-7,39.3-15.6v-7.6Z"/>
        <path class="cls-1" d="M224.9,251.6c0,8.7-17.7,15.6-39.3,15.6s-39.3-7-39.3-15.6v8c0,8.7,17.7,15.6,39.3,15.6s39.3-7,39.3-15.6v-8Z"/>
        <path class="cls-1" d="M224.9,236.6h0c0-9-17.7-16-39.3-16s-39.3,7-39.3,15.6v8c0,8.7,17.7,15.6,39.3,15.6s39.3-7,39.3-15.6v-7.6Z"/>
        <path class="cls-1" d="M252.4,95.9L16.4,159.1l31.3,116.1,97.3-26.1h0c-.7-1.4-1.4-3.1-1.4-4.9v-8c0-2.8,1-5.2,3.1-7.3-17.7-1.7-33-13.9-37.9-32-6.3-23.6,7.6-47.3,30.9-53.5s47.3,7.6,53.5,30.9c4.5,16.3-1.4,33-13.2,43.8,1.7,0,3.8-.3,5.6-.3,14.9,0,30.9,3.5,37.9,10.1l5.6-1.4v-6.3c0-1,.7-1.7,1.4-2.4-.7-1.4-1.4-3.1-1.4-4.9v-8c0-11.8,21.6-18.4,42.1-18.4h5.2l-24-90.7Z"/>
        <path class="cls-1" d="M281.9,76.7h-72.3v20.2c0,2.4-1.4,3.1-3.5,1.7l-44.8-37.9c-1.7-1.7-1.7-4.2,0-5.9l44.8-37.9c2.1-1.7,3.5-1,3.5,1.7v20.2h72.3c2.4,0,4.5,2.1,4.5,4.5v28.9c0,2.4-2.1,4.5-4.5,4.5Z"/>
      </g>
    </g>
  </g>
</svg>