<svg xmlns="http://www.w3.org/2000/svg" xmlns:xlink="http://www.w3.org/1999/xlink" width="1080" zoomAndPan="magnify" viewBox="0 0 810 809.999993" height="1080" preserveAspectRatio="xMidYMid meet" version="1.0"><defs><clipPath id="cf14610580"><path d="M 9.765625 9.765625 L 800.808594 9.765625 L 800.808594 800.808594 L 9.765625 800.808594 Z M 9.765625 9.765625 " clip-rule="nonzero"/></clipPath><clipPath id="0f77533f46"><path d="M 405.289062 9.765625 C 186.847656 9.765625 9.765625 186.847656 9.765625 405.289062 C 9.765625 623.726562 186.847656 800.808594 405.289062 800.808594 C 623.726562 800.808594 800.808594 623.726562 800.808594 405.289062 C 800.808594 186.847656 623.726562 9.765625 405.289062 9.765625 Z M 405.289062 9.765625 " clip-rule="nonzero"/></clipPath></defs><g clip-path="url(#cf14610580)"><g clip-path="url(#0f77533f46)"><path fill="#ff914d" d="M 9.765625 9.765625 L 800.808594 9.765625 L 800.808594 800.808594 L 9.765625 800.808594 Z M 9.765625 9.765625 " fill-opacity="1" fill-rule="nonzero"/></g></g><path fill="#ffffff" d="M 613.492188 505.050781 C 611.699219 503.976562 609.90625 502.988281 608.113281 502.003906 C 668.300781 455.804688 669.46875 359.289062 611.25 311.835938 C 547.832031 257.566406 446.648438 284.207031 418.125 362.425781 C 384.664062 343.410156 340.351562 349.242188 312.816406 376.332031 C 311.917969 371.488281 311.109375 366.644531 310.214844 361.710938 C 378.476562 334.890625 384.394531 235.679688 329.320312 193.070312 C 291.464844 161.675781 235.3125 171.722656 210.734375 214.242188 C 172.699219 275.058594 215.847656 367.449219 286.710938 366.015625 L 293.527344 404.316406 C 281.867188 430.601562 284.738281 461.367188 299.179688 485.855469 C 225.984375 466.480469 188.039062 566.050781 255.496094 600.40625 C 306.445312 624.625 361.074219 571.699219 338.109375 520.121094 C 348.785156 525.054688 360.445312 527.746094 372.464844 528.015625 C 361.253906 539.140625 346.003906 551.339844 349.324219 569.097656 C 350.667969 578.070312 355.960938 585.875 363.765625 590.539062 C 377.039062 598.429688 390.765625 605.160156 404.308594 610.542969 C 434.988281 622.652344 468.265625 628.75 500.199219 623.816406 C 530.339844 619.601562 562.632812 603.097656 587.75 582.464844 C 599.140625 573.316406 610.175781 562.820312 620.492188 551.25 C 633.226562 537.792969 629.640625 514.113281 613.492188 505.050781 Z M 645.335938 414.992188 C 640.851562 443.515625 630.179688 469.890625 608.203125 489.445312 C 585.597656 469.082031 572.320312 440.648438 571.066406 410.328125 C 571.066406 410.328125 645.335938 410.328125 645.335938 410.328125 C 645.785156 410.328125 645.695312 412.121094 645.335938 414.992188 Z M 608.203125 321.792969 C 630.625 341.886719 644.082031 370.949219 645.335938 400.910156 L 571.066406 400.910156 C 572.230469 370.589844 585.597656 342.15625 608.203125 321.792969 Z M 537.15625 292.820312 C 560.210938 293.804688 582.457031 301.789062 600.757812 315.78125 C 576.804688 337.847656 562.8125 368.4375 561.554688 400.910156 L 537.15625 400.910156 Z M 537.15625 410.328125 L 561.554688 410.328125 C 562.8125 442.890625 576.894531 473.476562 600.847656 495.542969 C 600.21875 495.992188 599.589844 496.441406 598.960938 496.980469 C 579.40625 486.933594 558.6875 478.859375 537.15625 474.195312 Z M 527.738281 292.820312 L 527.738281 400.910156 L 503.339844 400.910156 C 502.085938 368.347656 488.089844 337.847656 464.140625 315.691406 C 482.441406 301.789062 504.6875 293.804688 527.738281 292.820312 Z M 461.359375 422.4375 C 460.554688 418.3125 459.476562 414.273438 458.132812 410.328125 C 458.132812 410.328125 493.921875 410.328125 493.921875 410.328125 C 496.164062 410.328125 487.015625 445.3125 485.757812 448.269531 C 481.902344 456.613281 477.953125 466.660156 471.136719 472.9375 C 466.203125 475.449219 460.105469 475.003906 454.902344 476.886719 C 462.527344 460.113281 464.949219 440.738281 461.359375 422.4375 Z M 503.339844 410.328125 L 527.828125 410.328125 L 527.828125 472.402344 C 513.566406 470.160156 499.125 469.441406 484.773438 470.785156 C 496.164062 452.667969 502.53125 432.035156 503.339844 410.328125 Z M 428.441406 360.722656 C 435.527344 346.191406 444.675781 332.558594 456.785156 321.792969 C 479.300781 342.15625 492.578125 370.589844 493.832031 400.910156 C 493.832031 400.910156 454.09375 400.910156 454.09375 400.910156 C 453.554688 400.910156 446.289062 387.8125 445.484375 386.648438 C 440.011719 379.378906 433.375 372.921875 426.019531 367.539062 C 425.570312 367.179688 426.734375 364.3125 428.441406 360.722656 Z M 451.3125 420.914062 L 435.167969 411.582031 L 435.167969 392.746094 L 437.320312 391.492188 C 443.777344 399.742188 448.710938 410.507812 451.3125 420.914062 Z M 358.292969 362.15625 C 367.261719 360.273438 376.59375 359.914062 385.652344 361.261719 C 390.496094 361.980469 390.316406 361.800781 390.855469 366.105469 C 390.945312 366.734375 391.394531 371.847656 390.855469 372.203125 L 374.617188 381.625 L 358.382812 372.203125 L 358.382812 362.15625 Z M 311.828125 391.582031 C 312.007812 391.402344 312.1875 391.132812 312.277344 390.953125 L 315.328125 392.746094 L 315.328125 411.582031 L 299.089844 421.003906 L 297.925781 420.285156 C 300.527344 409.878906 305.28125 400.101562 311.828125 391.582031 Z M 207.59375 283.488281 C 197.90625 237.203125 229.214844 183.382812 278.28125 184.011719 C 317.390625 183.921875 349.683594 218.457031 355.960938 257.117188 C 371.839844 371.039062 231.992188 395.886719 207.59375 283.488281 Z M 301.0625 364.402344 C 302.140625 371.308594 303.84375 378.214844 304.652344 385.210938 C 303.574219 387.273438 301.960938 388.980469 300.703125 390.953125 C 299.179688 382.429688 297.65625 373.820312 296.21875 365.296875 C 296.128906 365.207031 300.703125 364.492188 301.0625 364.402344 Z M 232.621094 561.921875 C 222.933594 535.730469 238.09375 504.246094 264.734375 495.632812 C 274.960938 521.917969 259.800781 553.941406 232.980469 562.730469 C 232.890625 562.460938 232.710938 562.191406 232.621094 561.921875 Z M 289.761719 596.1875 C 269.128906 599.597656 247.421875 589.28125 237.015625 571.253906 C 267.785156 560.757812 285.1875 523.890625 273.882812 493.390625 C 294.425781 489.714844 316.132812 500.386719 326.628906 518.328125 C 295.769531 528.734375 278.28125 565.78125 289.761719 596.1875 Z M 333.535156 549.183594 C 332.996094 555.105469 331.472656 560.847656 329.050781 566.320312 C 325.195312 574.929688 311.917969 594.304688 300.703125 593.320312 C 295.683594 592.871094 295.59375 579.773438 295.683594 575.109375 C 295.859375 553.761719 310.394531 533.578125 330.664062 526.851562 C 333.355469 533.847656 334.164062 541.5625 333.535156 549.183594 Z M 336.40625 506.398438 L 334.34375 507.5625 C 324.566406 501.824219 315.863281 493.75 309.40625 484.332031 L 320.082031 478.140625 L 336.40625 487.5625 Z M 344.390625 512.585938 C 345.375 511.691406 345.914062 510.433594 345.914062 509.179688 L 345.914062 484.960938 C 345.914062 483.253906 345.015625 481.730469 343.582031 480.832031 C 337.304688 477.246094 331.5625 471.773438 324.386719 469.53125 C 316.761719 467.109375 311.019531 472.671875 304.652344 476.347656 C 300.703125 468.992188 298.105469 461.007812 296.667969 452.757812 C 296.21875 449.976562 296.667969 430.421875 296.21875 430.152344 C 301.242188 433.023438 309.675781 426.742188 313.980469 424.320312 C 319.273438 421.359375 324.746094 417.324219 324.835938 410.6875 C 324.925781 403.78125 324.835938 396.871094 324.835938 390.054688 C 325.105469 386.734375 320.976562 385.210938 318.644531 383.777344 C 327.078125 375.164062 337.574219 368.617188 348.875 364.757812 L 348.875 374.894531 C 348.875 376.601562 349.773438 378.125 351.207031 379.023438 C 352.105469 379.292969 374.171875 392.925781 374.527344 391.757812 C 374.796875 393.015625 396.953125 379.292969 397.851562 379.023438 C 399.285156 378.214844 400.183594 376.601562 400.183594 374.894531 L 400.183594 364.757812 C 411.753906 368.707031 422.339844 375.523438 430.953125 384.226562 C 428.707031 385.480469 425.390625 386.914062 425.570312 390.054688 C 425.570312 390.054688 425.570312 414.273438 425.570312 414.273438 C 425.570312 415.980469 426.464844 417.503906 427.902344 418.402344 L 448.890625 430.511719 C 450.148438 431.226562 451.671875 431.316406 452.929688 430.78125 C 452.570312 430.871094 452.300781 447.375 452.121094 448.808594 C 451.851562 452.578125 446.558594 476.796875 444.585938 475.71875 C 444.585938 475.71875 432.566406 468.722656 432.566406 468.722656 C 431.128906 467.917969 429.335938 467.917969 427.8125 468.722656 L 407.089844 480.832031 C 405.65625 481.640625 404.757812 483.253906 404.757812 484.871094 C 404.757812 484.871094 404.757812 501.644531 404.757812 501.644531 C 397.3125 506.757812 390.136719 512.230469 383.320312 518.058594 C 370.3125 519.671875 356.320312 517.609375 344.390625 512.585938 Z M 438.574219 482.894531 C 434.898438 484.871094 415.613281 491.957031 414.175781 495.542969 L 414.175781 487.5625 L 430.414062 478.140625 Z M 368.519531 582.375 C 357.394531 576.1875 354.882812 559.859375 363.675781 550.621094 C 371.570312 541.742188 380.089844 533.398438 388.972656 525.773438 L 400.09375 598.519531 C 389.507812 593.945312 378.925781 588.5625 368.519531 582.375 Z M 422.160156 606.773438 C 418.125 605.519531 414.175781 604.082031 410.230469 602.558594 L 397.402344 518.777344 C 402.066406 515.097656 406.730469 511.691406 411.664062 508.460938 L 426.914062 608.121094 C 425.300781 607.671875 423.773438 607.3125 422.160156 606.773438 Z M 498.765625 614.488281 C 479.390625 617.449219 458.578125 616.191406 436.871094 610.988281 C 436.871094 610.988281 420.367188 502.988281 420.367188 502.988281 C 420.097656 500.386719 442.253906 491.777344 445.035156 490.699219 C 475.175781 478.230469 508.8125 476.707031 540.386719 484.691406 L 556.890625 592.691406 C 537.695312 604.082031 518.140625 611.527344 498.765625 614.488281 Z M 571.421875 583.003906 C 569.449219 584.4375 567.476562 585.695312 565.414062 587.039062 L 550.164062 487.382812 C 555.816406 488.90625 561.289062 490.878906 566.847656 492.941406 L 579.675781 576.722656 C 576.984375 578.875 574.203125 580.941406 571.421875 583.003906 Z M 613.492188 544.96875 C 605.421875 553.941406 596.898438 562.191406 588.199219 569.816406 L 577.074219 496.980469 C 587.75 501.824219 598.960938 506.398438 608.558594 513.214844 C 618.335938 521.109375 623.269531 534.117188 613.492188 544.96875 Z M 538.683594 535.371094 C 544.78125 534.472656 546.128906 543.714844 540.117188 544.699219 C 540.117188 544.699219 532.941406 545.777344 532.941406 545.777344 L 534.199219 553.851562 C 534.554688 556.453125 532.851562 558.875 530.25 559.230469 C 527.738281 559.589844 525.226562 557.886719 524.867188 555.285156 C 524.867188 555.285156 523.613281 547.210938 523.613281 547.210938 L 513.476562 548.738281 L 514.734375 556.808594 C 515.089844 559.410156 513.386719 561.832031 510.785156 562.191406 C 508.273438 562.550781 505.761719 560.847656 505.402344 558.246094 C 505.402344 558.246094 504.148438 550.171875 504.148438 550.171875 L 494.011719 551.695312 L 495.265625 559.769531 C 495.625 562.371094 493.921875 564.792969 491.320312 565.152344 C 488.808594 565.511719 486.296875 563.808594 485.9375 561.207031 C 485.9375 561.207031 484.683594 553.132812 484.683594 553.132812 L 474.546875 554.65625 L 475.800781 562.730469 C 476.160156 565.332031 474.457031 567.753906 471.855469 568.113281 C 469.34375 568.472656 466.832031 566.765625 466.472656 564.164062 C 466.472656 564.164062 465.21875 556.09375 465.21875 556.09375 L 455.082031 557.617188 L 456.335938 565.691406 C 456.695312 568.292969 454.992188 570.714844 452.390625 571.074219 C 449.878906 571.429688 447.367188 569.726562 447.007812 567.125 C 447.007812 567.125 445.753906 559.050781 445.753906 559.050781 C 441.625 559.410156 434.449219 562.460938 433.195312 556.183594 C 432.835938 553.582031 434.539062 551.160156 437.140625 550.800781 L 444.316406 549.722656 L 443.0625 541.652344 C 442.703125 539.050781 444.40625 536.628906 447.007812 536.269531 C 449.609375 535.910156 452.03125 537.613281 452.390625 540.214844 L 453.644531 548.289062 L 463.78125 546.761719 L 462.527344 538.691406 C 462.167969 536.089844 463.871094 533.667969 466.472656 533.308594 C 469.074219 532.859375 471.496094 534.652344 471.855469 537.253906 L 473.109375 545.328125 L 483.246094 543.804688 L 481.992188 535.730469 C 481.632812 533.128906 483.335938 530.707031 485.9375 530.347656 C 488.539062 529.898438 490.960938 531.695312 491.320312 534.296875 L 492.578125 542.367188 L 502.710938 540.84375 L 501.457031 532.769531 C 501.097656 530.167969 502.800781 527.746094 505.402344 527.386719 C 508.003906 527.027344 510.425781 528.734375 510.785156 531.335938 L 512.042969 539.40625 L 522.175781 537.882812 L 520.921875 529.808594 C 520.5625 527.207031 522.265625 524.785156 524.867188 524.429688 C 527.46875 524.070312 529.890625 525.773438 530.25 528.375 L 531.507812 536.449219 Z M 397.941406 455.714844 C 399.375 454.910156 400.273438 453.292969 400.273438 451.589844 L 400.273438 427.371094 C 400.273438 425.667969 399.375 424.140625 397.941406 423.246094 L 376.953125 411.136719 C 375.515625 410.328125 373.722656 410.328125 372.195312 411.136719 L 351.207031 423.246094 C 349.773438 424.050781 348.875 425.667969 348.875 427.371094 L 348.875 451.589844 C 348.875 453.292969 349.773438 454.820312 351.207031 455.714844 C 352.105469 455.984375 374.261719 469.710938 374.527344 468.453125 C 374.886719 469.800781 397.132812 455.984375 397.941406 455.714844 Z M 358.292969 448.988281 L 358.292969 430.152344 L 374.617188 420.734375 L 390.855469 430.152344 L 390.855469 448.988281 L 374.617188 458.40625 Z M 312.457031 344.488281 C 364.484375 319.28125 366.007812 239.175781 321.785156 205.269531 C 264.644531 161.136719 198.625 217.199219 211.363281 282.863281 C 218.179688 329.058594 268.144531 366.824219 312.457031 344.488281 Z M 338.917969 301.878906 L 338.738281 301.878906 L 335.0625 281.066406 L 344.03125 279.453125 C 343.402344 287.4375 341.699219 294.972656 338.917969 301.878906 Z M 342.953125 259.449219 C 343.582031 262.949219 343.851562 266.445312 344.03125 269.945312 L 333.355469 271.828125 L 329.679688 251.109375 L 340.351562 249.222656 C 341.429688 252.542969 342.328125 255.953125 342.953125 259.449219 Z M 324.566406 220.96875 C 329.589844 226.621094 333.804688 233.078125 336.945312 240.253906 L 327.972656 241.867188 L 324.296875 221.058594 Z M 324.117188 273.53125 L 303.304688 277.210938 L 299.628906 256.488281 L 320.4375 252.8125 Z M 318.734375 243.484375 L 297.925781 247.160156 L 294.246094 226.351562 L 315.058594 222.671875 Z M 312.90625 210.382812 L 313.441406 213.34375 L 292.632812 217.109375 L 289.671875 200.246094 C 297.746094 201.773438 305.636719 205.269531 312.90625 210.382812 Z M 294.066406 278.824219 L 273.257812 282.503906 L 269.578125 261.78125 L 290.390625 258.105469 Z M 285.007812 228.054688 L 288.683594 248.867188 L 267.875 252.542969 L 264.195312 231.730469 Z M 269.308594 199.886719 C 272.808594 199.261719 276.394531 198.902344 279.894531 199.082031 L 283.394531 218.726562 L 262.582031 222.402344 L 259.082031 202.847656 C 262.3125 201.59375 265.722656 200.515625 269.308594 199.886719 Z M 258.636719 254.15625 L 237.824219 257.835938 L 234.148438 237.023438 L 254.867188 233.347656 Z M 250.292969 207.242188 L 253.253906 224.109375 L 232.53125 227.785156 L 231.992188 224.824219 C 237.015625 217.46875 243.207031 211.550781 250.292969 207.242188 Z M 224.636719 238.730469 L 224.90625 238.640625 L 228.585938 259.449219 L 219.613281 261.066406 C 220.152344 253.351562 221.859375 245.816406 224.636719 238.730469 Z M 220.601562 281.15625 C 219.972656 277.660156 219.613281 274.160156 219.523438 270.664062 L 230.199219 268.777344 L 233.878906 289.5 L 223.203125 291.382812 C 222.214844 288.066406 221.230469 284.65625 220.601562 281.15625 Z M 238.992188 319.640625 C 233.96875 313.988281 229.75 307.53125 226.613281 300.355469 L 235.582031 298.738281 L 239.257812 319.550781 Z M 243.207031 287.886719 L 239.527344 267.164062 L 260.25 263.488281 L 263.925781 284.207031 Z M 244.820312 297.125 L 265.542969 293.445312 L 269.21875 314.257812 L 248.5 317.933594 Z M 250.742188 330.132812 L 250.203125 327.175781 L 270.925781 323.496094 L 273.882812 340.359375 C 265.8125 338.746094 257.917969 335.335938 250.742188 330.132812 Z M 274.871094 291.832031 L 295.683594 288.15625 L 299.359375 308.964844 L 278.546875 312.644531 Z M 294.335938 340.71875 C 290.835938 341.347656 287.25 341.527344 283.75 341.527344 L 280.253906 321.972656 L 301.0625 318.292969 L 304.5625 337.847656 C 301.242188 339.015625 297.835938 340.089844 294.335938 340.71875 Z M 304.921875 286.449219 L 325.730469 282.773438 L 329.410156 303.582031 L 308.597656 307.261719 Z M 331.113281 312.824219 L 331.652344 315.691406 C 326.71875 322.867188 320.527344 328.96875 313.351562 333.363281 L 310.394531 316.5 Z M 331.113281 312.824219 " fill-opacity="1" fill-rule="nonzero"/></svg>