<svg viewBox="0 0 350.00000000000006 149.9140755426036" preserveAspectRatio="xMidYMid meet" class="css-8aabad" id="ghafhcac"><defs id="SvgjsDefs1001"></defs><g id="SvgjsG1007" featurekey="PG4fjM-0" transform="matrix(0.903925570981784,0,0,0.903925570981784,132.29958720330484,-11.504625603077933)" fill="#111"><path xmlns="http://www.w3.org/2000/svg" d="M89.9,71.5c0,2.5-5.1,4.5-11.3,4.5s-11.3-2-11.3-4.5v2.3c0,2.5,5.1,4.5,11.3,4.5s11.3-2,11.3-4.5V71.5z"></path><path xmlns="http://www.w3.org/2000/svg" d="M89.9,76c0,2.5-5.1,4.5-11.3,4.5s-11.3-2-11.3-4.5v2.3c0,2.5,5.1,4.5,11.3,4.5s11.3-2,11.3-4.5V76z"></path><path xmlns="http://www.w3.org/2000/svg" d="M89.9,80.5c0,2.5-5.1,4.5-11.3,4.5s-11.3-2-11.3-4.5v2.3c0,2.5,5.1,4.5,11.3,4.5s11.3-2,11.3-4.5V80.5z"></path><path xmlns="http://www.w3.org/2000/svg" d="M89.9,67.2L89.9,67.2c0-2.6-5.1-4.6-11.3-4.6s-11.3,2-11.3,4.5v2.3c0,2.5,5.1,4.5,11.3,4.5s11.3-2,11.3-4.5V67.2z"></path><path xmlns="http://www.w3.org/2000/svg" d="M65.2,80.5c0,2.5-5.1,4.5-11.3,4.5c-6.2,0-11.3-2-11.3-4.5v2.3c0,2.5,5.1,4.5,11.3,4.5c6.2,0,11.3-2,11.3-4.5V80.5z"></path><path xmlns="http://www.w3.org/2000/svg" d="M65.2,76.2L65.2,76.2c0-2.6-5.1-4.6-11.3-4.6s-11.3,2-11.3,4.5v2.3c0,2.5,5.1,4.5,11.3,4.5s11.3-2,11.3-4.5V76.2z"></path><g xmlns="http://www.w3.org/2000/svg"><path d="M73.1,35.7L5.2,53.9l9,33.4l28-7.5c0,0,0,0,0,0c-0.2-0.4-0.4-0.9-0.4-1.4v-2.3c0-0.8,0.3-1.5,0.9-2.1   c-5.1-0.5-9.5-4-10.9-9.2C30,58,34,51.2,40.7,49.4c6.7-1.8,13.6,2.2,15.4,8.9c1.3,4.7-0.4,9.5-3.8,12.6c0.5,0,1.1-0.1,1.6-0.1   c4.3,0,8.9,1,10.9,2.9l1.6-0.4v-1.8c0-0.3,0.2-0.5,0.4-0.7c-0.2-0.4-0.4-0.9-0.4-1.4v-2.3c0-3.4,6.2-5.3,12.1-5.3c0.5,0,1,0,1.5,0   L73.1,35.7z"></path></g><path xmlns="http://www.w3.org/2000/svg" d="M81.6,30.2H60.8V36c0,0.7-0.4,0.9-1,0.5L46.9,25.6c-0.5-0.5-0.5-1.2,0-1.7L59.8,13c0.6-0.5,1-0.3,1,0.5v5.8h20.8  c0.7,0,1.3,0.6,1.3,1.3v8.3C82.9,29.6,82.3,30.2,81.6,30.2z"></path></g><g id="SvgjsG1008" featurekey="jxYttZ-0" transform="matrix(4.099261474910977,0,0,4.099261474910977,-3.881714854224643,65.9044306814109)" fill="#111"><path d="M5.6738 13.6328 l1.1133 0 c-0.17578 2.3535 1.4258 4.1211 5.9375 1.2207 l1.4648 0 l-0.91797 3.9844 c-4.9512 2.8516 -12.295 1.9922 -11.221 -5.2051 l-1.1035 0 c0.058594 -0.26367 0.11719 -0.57617 0.19531 -0.91797 c0.99609 -4.3652 4.3262 -7.5391 8.9648 -7.5391 c2.5586 0 4.0332 0.73242 4.9121 1.3379 l-0.94727 4.082 l-1.5723 0 c-3.5352 -3.8086 -6.5918 0.078125 -6.8262 3.0371 z M16.27929375 13.789100000000001 l-1.0645 0 l0.3125 -1.4453 l-1.1523 0 l0.74219 -3.2422 l1.1816 0 l0.6543 -2.8613 l4.6387 0 l-0.6543 2.8613 l2.9102 0 l-0.74219 3.2422 l-2.9395 0 c-0.087891 0.49805 -0.19531 0.94727 -0.3125 1.4453 l1.0547 0 c-0.19531 0.83984 -0.40039 1.6699 -0.57617 2.5195 c-0.36133 1.6504 0.9375 1.5137 1.4355 0.49805 l1.3574 0 l-0.76172 3.3789 c-1.377 0.11719 -3.6328 0.29297 -5.166 -0.019531 c-1.7773 -0.38086 -1.9141 -2.0703 -1.5527 -3.6719 z M29.26754375 13.6328 l-1.4453 6.3574 l-4.5801 0 l1.4551 -6.3574 l-0.88867 0 l1.0645 -4.6094 l4.5801 0 l-0.13672 0.52734 c1.2891 -0.6543 2.1973 -0.6543 3.5352 -0.41016 l-0.89844 3.877 l-1.2109 0 c-0.20508 -0.92773 -1.9238 -0.57617 -2.2461 0.14648 l-0.11719 0.46875 l0.88867 0 z M33.84764375 13.789100000000001 l-1.0645 0 l1.9824 -8.5547 l4.6191 0 l-1.9629 8.5547 l1.0547 0 l-1.4453 6.2109 l-4.6387 0 z M40.05855 13.789100000000001 l-1.0352 0 c0.58594 -3.3789 3.2227 -6.9629 6.3477 -8.0469 c3.2129 -1.123 5.8691 -0.57617 8.6816 0.94727 l-0.9375 4.0332 l-1.543 0 c-0.22461 -0.54688 -0.078125 -1.6211 -2.3438 -1.8164 c-3.2227 -0.2832 -5.3418 2.5391 -5.7227 4.8828 l1.0352 0 c-0.19531 1.2207 0.068359 2.3242 0.89844 2.7734 c0.54688 0.29297 1.3379 0.42969 2.5098 0.29297 l0.019531 0 l0.36133 -1.582 l-2.3242 0 l0.3418 -1.4844 l-1.0547 0 l0.50781 -2.1875 l7.168 0 l-0.49805 2.1875 l1.0449 0 l-1.2402 5.3809 c-0.49805 0.20508 -1.0156 0.37109 -1.5332 0.54688 c-2.3242 0.71289 -5.3027 1.1914 -7.6172 0.26367 c-2.7441 -1.0742 -3.5156 -3.5742 -3.0664 -6.1914 z M60.136725 17.0605 c0.15625 -0.67383 0.2832 -1.3281 0.41016 -2.0117 c-3.1543 0.42969 -1.9434 3.1055 -0.41016 2.0117 z M64.053125 20 l-4.5605 0 l0.039063 -0.20508 l-0.019531 0 c-2.3242 0.70313 -6.0352 0.18555 -5.2539 -3.1836 c0.32227 -1.3574 1.0156 -2.2949 2.1484 -2.9785 l-1.1035 0 c0.20508 -0.11719 0.46875 -0.24414 0.71289 -0.3418 c1.1914 -0.57617 2.6367 -0.71289 3.9551 -0.81055 c0.53711 -1.2402 -2.2363 -1.2695 -4.3555 0.20508 l-0.75195 0 l0.75195 -3.2715 c2.959 -0.98633 10.205 -1.8262 9.043 3.2715 l-0.22461 0.94727 l1.1035 0 c-0.49805 2.1289 -0.97656 4.248 -1.4844 6.3672 z M75.76190625 13.6328 c0.79102 0.60547 1.0742 1.4941 0.79102 2.7148 c-0.94727 4.248 -7.1484 4.707 -10.449 2.832 l0.79102 -3.3789 l1.3281 0 c0.14648 0.80078 1.6211 1.6113 3.0859 1.2598 c0.9082 -0.24414 0.55664 -0.56641 -0.068359 -0.74219 c-0.92773 -0.25391 -2.4121 -0.13672 -3.3496 -1.6211 c-0.18555 -0.30273 -0.2832 -0.70313 -0.30273 -1.0645 l-0.91797 0 c-0.058594 -0.89844 0.30273 -1.8457 0.79102 -2.5098 c2.0801 -2.7148 6.416 -2.9688 9.3066 -1.4063 l-0.71289 3.0664 l-1.3672 0 c-0.39063 -0.67383 -2.5391 -1.3086 -3.1348 -0.78125 c-0.20508 0.20508 -0.068359 0.56641 0.9668 0.76172 c0.41016 0.078125 0.86914 0.16602 1.2695 0.30273 c0.41992 0.16602 0.77148 0.35156 1.0645 0.56641 l0.9082 0 z M78.7597625 13.789100000000001 l-1.0645 0 l0.3125 -1.4453 l-1.1523 0 l0.74219 -3.2422 l1.1816 0 l0.6543 -2.8613 l4.6387 0 l-0.6543 2.8613 l2.9102 0 l-0.74219 3.2422 l-2.9395 0 c-0.087891 0.49805 -0.19531 0.94727 -0.3125 1.4453 l1.0547 0 c-0.19531 0.83984 -0.40039 1.6699 -0.57617 2.5195 c-0.36133 1.6504 0.9375 1.5137 1.4355 0.49805 l1.3574 0 l-0.76172 3.3789 c-1.377 0.11719 -3.6328 0.29297 -5.166 -0.019531 c-1.7773 -0.38086 -1.9141 -2.0703 -1.5527 -3.6719 z"></path></g></svg>